<svg height="512pt" viewBox="0 -21 512.00053 512" width="512pt" xmlns="http://www.w3.org/2000/svg"><path d="m506.125 226.019531h-28.53125c-3.921875 0-7.148438-3.046875-7.417969-6.960937-8.453125-121.921875-110.824219-219.058594-234.796875-219.058594-129.457031 0-235.378906 105.921875-235.378906 235.378906 0 127.835938 103.28125 232.722656 230.523438 235.332032 2.660156.054687 4.855468-2.078126 4.855468-4.738282v-20.789062c0-2.566406-2.046875-4.667969-4.613281-4.722656-110.714844-2.476563-200.515625-93.800782-200.515625-205.082032 0-112.820312 92.308594-205.128906 205.128906-205.128906h.003906c106.945313 0 195.449219 82.945312 204.378907 187.683594.371093 4.347656-3.058594 8.085937-7.421875 8.085937h-28.148438c-4.960937 0-7.683594 5.777344-4.519531 9.601563l50.964844 61.644531c2.347656 2.835937 6.695312 2.835937 9.042969 0l50.964843-61.644531c3.160157-3.820313.441407-9.601563-4.519531-9.601563zm0 0" fill="#8cc9f9"/><path d="m30.21875 235.378906c0-124.386718 97.792969-227.027344 220.289062-234.878906-5.003906-.320312-10.046874-.5-15.128906-.5-129.457031 0-235.378906 105.921875-235.378906 235.378906 0 127.835938 103.28125 232.722656 230.523438 235.332032 1.648437.03125 3.117187-.777344 3.996093-2.027344-114.90625-15.332032-204.300781-114.378906-204.300781-233.304688zm0 0" fill="#60b8fe"/><path d="m429.890625 235.625c-3.164063-3.824219-.445313-9.605469 4.519531-9.605469h28.148438c4.363281 0 7.789062-3.738281 7.417968-8.085937-8.925781-104.738282-97.429687-187.683594-204.378906-187.683594-5.070312 0-10.097656.191406-15.078125.558594 100.050781 7.390625 180.734375 87.375 189.238281 187.125.371094 4.351562-3.054687 8.085937-7.417968 8.085937h-28.152344c-4.960938 0-7.679688 5.78125-4.519531 9.605469l50.96875 61.640625c2.34375 2.839844 6.691406 2.839844 9.039062 0l10.589844-12.804687zm0 0" fill="#60b8fe"/><path d="m354.613281 142.910156h-233.464843c-4.621094 0-8.367188 3.746094-8.367188 8.363282v180.25c0 4.621093 3.746094 8.367187 8.367188 8.367187h233.464843c4.621094 0 8.367188-3.746094 8.367188-8.367187v-180.25c0-4.617188-3.746094-8.363282-8.367188-8.363282zm0 0" fill="#23a8fe"/><path d="m143.003906 331.523438v-180.25c0-4.621094 3.742188-8.363282 8.363282-8.363282h-30.21875c-4.621094 0-8.367188 3.746094-8.367188 8.363282v180.25c0 4.621093 3.746094 8.367187 8.367188 8.367187h30.21875c-4.621094 0-8.363282-3.746094-8.363282-8.367187zm0 0" fill="#0193fa"/><path d="m174.386719 237.597656-61.605469 88.9375v4.988282c0 4.621093 3.746094 8.367187 8.367188 8.367187h62.375l36.46875-53.261719-35.628907-49.03125c-2.402343-3.507812-7.574219-3.507812-9.976562 0zm0 0" fill="#43cb8e"/><path d="m143.003906 331.523438c0-3.25.988282-6.417969 2.839844-9.089844l48.882812-70.574219-10.363281-14.261719c-2.402343-3.503906-7.574219-3.503906-9.976562 0l-61.601563 88.9375v4.988282c0 4.621093 3.746094 8.367187 8.363282 8.367187h30.21875c-4.621094 0-8.363282-3.746094-8.363282-8.367187zm0 0" fill="#00ba66"/><path d="m242.652344 189.652344c0 12.613281-10.226563 22.835937-22.839844 22.835937-12.609375 0-22.835938-10.222656-22.835938-22.835937 0-12.613282 10.226563-22.839844 22.835938-22.839844 12.613281 0 22.839844 10.226562 22.839844 22.839844zm0 0" fill="#fee55a"/><path d="m227.195312 189.652344c0-6.816406 2.992188-12.933594 7.726563-17.117188-4.027344-3.558594-9.3125-5.722656-15.109375-5.722656-12.609375 0-22.835938 10.226562-22.835938 22.839844 0 12.609375 10.222657 22.835937 22.835938 22.835937 5.796875 0 11.085938-2.164062 15.109375-5.71875-4.734375-4.1875-7.726563-10.300781-7.726563-17.117187zm0 0" fill="#ffd301"/><path d="m292.21875 192.695312c-2.402344-3.507812-7.574219-3.507812-9.976562 0l-100.777344 147.195313h173.148437c4.621094 0 8.367188-3.746094 8.367188-8.367187v-35.375zm0 0" fill="#43cb8e"/><path d="m292.21875 192.695312c-2.402344-3.507812-7.574219-3.507812-9.976562 0l-100.777344 147.195313h30.21875l90.652344-132.40625zm0 0" fill="#00ba66"/></svg>